# xmcd
#
# Track frame offsets: 
#        150
#        9282
#        19801
#        32021
#        40864
#        53578
#        64806
#        83081
#        95308
#        107042
#        118598
#        134870
#
# Disc length: 1990 seconds
#
# Revision: 0
# Processed by: cddbd v1.4PL0 Copyright (c) Steve Scherf et al.
# Submitted via: ExactAudioCopy v0.90b2
#
DISCID=9407c40c
DTITLE=Ray Condo and His Ricochets - Door-to-Door Maniac
DYEAR=1997
DGENRE=Swing
TTITLE0=Done Gone Crazy
TTITLE1=Shadow My Baby
TTITLE2=I Lost My Gal in the Yukon
TTITLE3=Jump Back, Honey, Jump Back
TTITLE4=I'm Feelin' Bad
TTITLE5=She Likes to Boogie Real Low
TTITLE6=Tell Me More
TTITLE7=Shout, Sister, Shout
TTITLE8=Feeling No Pain
TTITLE9=Have You Seen Mabel?
TTITLE10=I Can't Believe that You're in Love with Me
TTITLE11=Great Shakin' Fever
EXTD=
EXTT0=
EXTT1=
EXTT2=
EXTT3=
EXTT4=
EXTT5=
EXTT6=
EXTT7=
EXTT8=
EXTT9=
EXTT10=
EXTT11=
PLAYORDER=
